<svg xmlns:dc="http://purl.org/dc/elements/1.1/" xmlns:cc="http://creativecommons.org/ns#" xmlns:rdf="http://www.w3.org/1999/02/22-rdf-syntax-ns#" xmlns:svg="http://www.w3.org/2000/svg" xmlns="http://www.w3.org/2000/svg" xmlns:xlink="http://www.w3.org/1999/xlink" id="svg237395" viewBox="0 0 1024 768" height="768px" width="1024px" version="1.1">
  <metadata id="metadata237401">
    <rdf:rdf>
      <cc:work rdf:about="">
        <dc:format>image/svg+xml</dc:format>
        <dc:type rdf:resource="http://purl.org/dc/dcmitype/StillImage"></dc:type>
      </cc:work>
    </rdf:rdf>
  </metadata>
  <defs id="defs237399"></defs>
  <linearGradient spreadMethod="pad" y2="30%" x2="-10%" y1="120%" x1="30%" id="3d_gradient2-logo-ea7b57a3-56d4-4974-bba5-8aca2ebe22d6">
    <stop id="stop237376" stop-opacity="1" stop-color="#ffffff" offset="0%"></stop>
    <stop id="stop237378" stop-opacity="1" stop-color="#000000" offset="100%"></stop>
  </linearGradient>
  <linearGradient gradientTransform="rotate(-30)" spreadMethod="pad" y2="30%" x2="-10%" y1="120%" x1="30%" id="3d_gradient3-logo-ea7b57a3-56d4-4974-bba5-8aca2ebe22d6">
    <stop id="stop237381" stop-opacity="1" stop-color="#ffffff" offset="0%"></stop>
    <stop id="stop237383" stop-opacity="1" stop-color="#cccccc" offset="50%"></stop>
    <stop id="stop237385" stop-opacity="1" stop-color="#000000" offset="100%"></stop>
  </linearGradient>
  <g id="logo-group">
    <image xlink:href="" id="container" style="display: none;" x="272" y="144" width="480" height="480" transform="translate(0 0)"></image>
    <g id="logo-center" transform="translate(5.684341886080802e-14 0)">
      <image xlink:href="" id="icon_container" style="display: none;" x="0" y="0"></image>
      <g id="slogan" style="font-style:normal;font-weight:400;font-size:32px;line-height:1;font-family:Arvo;font-variant-ligatures:none;text-align:center;text-anchor:middle" transform="translate(0 0)"></g>
      <g id="title" style="font-style:normal;font-weight:800;font-size:72px;line-height:1;font-family:'Montserrat ExtraBold Alt1';font-variant-ligatures:none;text-align:center;text-anchor:middle" transform="translate(0 0)">
        <path id="path237404" style="font-style:normal;font-weight:800;font-size:72px;line-height:1;font-family:'Montserrat ExtraBold Alt1';font-variant-ligatures:none;text-align:center;text-anchor:middle" d="m 331.7705,-50.4 h -14.04 L 295.4825,0 h 14.544 l 3.96,-9.792 4.176,-10.512 6.48,-16.128 6.48,16.128 4.176,10.512 3.96,9.792 h 14.832 z" stroke-width="0" stroke-linejoin="miter" stroke-miterlimit="2" fill="#23215a" stroke="#23215a" transform="translate(0 314.47) translate(157.70695624999996 37.4) scale(1.25) translate(-295.4825 50.4)"></path>
        <path id="path237406" style="font-style:normal;font-weight:800;font-size:72px;line-height:1;font-family:'Montserrat ExtraBold Alt1';font-variant-ligatures:none;text-align:center;text-anchor:middle" d="m 403.63775,-21.528 c -1.656,-2.16 -3.96,-3.744 -6.768,-4.752 2.088,-1.08 3.816,-2.592 4.968,-4.464 1.152,-1.872 1.8,-4.032 1.8,-6.48 0,-4.032 -1.728,-7.2 -5.04,-9.576 -3.384,-2.376 -8.28,-3.6 -14.688,-3.6 h -25.776 v 10.296 h 23.904 c 4.752,0 7.2,1.656 7.2,4.824 0,3.312 -2.448,4.896 -7.2,4.896 h -23.904 v 9.864 h 26.064 c 4.968,0 7.488,1.728 7.488,5.112 0,3.456 -2.52,5.112 -7.488,5.112 h -26.064 V 0 h 27.216 c 6.696,0 11.808,-1.152 15.408,-3.6 3.528,-2.376 5.328,-5.76 5.328,-10.224 0,-3.024 -0.864,-5.544 -2.448,-7.704 z" stroke-width="0" stroke-linejoin="miter" stroke-miterlimit="2" fill="#2b2a64" stroke="#2b2a64" transform="translate(0 314.47) translate(261.02101874999994 37.4) scale(1.25) translate(-358.13375 50.4)"></path>
        <path id="path237408" style="font-style:normal;font-weight:800;font-size:72px;line-height:1;font-family:'Montserrat ExtraBold Alt1';font-variant-ligatures:none;text-align:center;text-anchor:middle" d="m 461.996,-38.52 c -2.376,-3.744 -5.688,-6.696 -9.936,-8.784 -4.32,-2.016 -9.216,-3.096 -14.688,-3.096 H 413.54 v 11.376 h 23.256 c 4.32,0 7.776,1.224 10.368,3.672 2.592,2.52 3.96,5.904 3.96,10.152 0,4.32 -1.368,7.704 -3.96,10.152 -2.592,2.448 -6.048,3.672 -10.368,3.672 h -9 V -24.768 H 413.54 V 0 h 23.832 c 5.472,0 10.368,-1.008 14.688,-3.096 4.248,-2.016 7.56,-4.968 9.936,-8.784 2.304,-3.744 3.528,-8.208 3.528,-13.32 0,-5.04 -1.224,-9.504 -3.528,-13.32 z" stroke-width="0" stroke-linejoin="miter" stroke-miterlimit="2" fill="#33326f" stroke="#33326f" transform="translate(0 314.47) translate(355.27883124999994 37.4) scale(1.25) translate(-413.54 50.4)"></path>
        <path id="path237410" style="font-style:normal;font-weight:800;font-size:72px;line-height:1;font-family:'Montserrat ExtraBold Alt1';font-variant-ligatures:none;text-align:center;text-anchor:middle" d="m 478.78437,-5.112 c 4.176,4.104 10.008,6.12 17.496,6.12 7.488,0 13.248,-2.016 17.42401,-6.12 4.17599,-4.032 6.264,-9.864 6.264,-17.352 V -50.4 h -14.04 v 27.504 c 0,8.064 -3.16801,12.096 -9.50401,12.096 -6.408,0 -9.576,-4.032 -9.576,-12.096 V -50.4 h -14.256 v 27.936 c 0,7.488 2.01601,13.32 6.192,17.352 z" stroke-width="0" stroke-linejoin="miter" stroke-miterlimit="2" fill="#3b3b79" stroke="#3b3b79" transform="translate(0 314.47) translate(454.09429374999996 37.4) scale(1.25) translate(-472.59237 50.4)"></path>
        <path id="path237412" style="font-style:normal;font-weight:800;font-size:72px;line-height:1;font-family:'Montserrat ExtraBold Alt1';font-variant-ligatures:none;text-align:center;text-anchor:middle" d="M 529.55562,-50.4 V 0 h 38.30401 v -11.304 h -24.048 V -50.4 Z" stroke-width="0" stroke-linejoin="miter" stroke-miterlimit="2" fill="#434383" stroke="#434383" transform="translate(0 314.47) translate(550.2983562499999 37.4) scale(1.25) translate(-529.55562 50.4)"></path>
        <path id="path237414" style="font-style:normal;font-weight:800;font-size:72px;line-height:1;font-family:'Montserrat ExtraBold Alt1';font-variant-ligatures:none;text-align:center;text-anchor:middle" d="M 573.43062,-50.4 V 0 h 38.30401 v -11.304 h -24.048 V -50.4 Z" stroke-width="0" stroke-linejoin="miter" stroke-miterlimit="2" fill="#4b4c8d" stroke="#4b4c8d" transform="translate(0 314.47) translate(630.14210625 37.4) scale(1.25) translate(-573.43062 50.4)"></path>
        <path id="path237416" style="font-style:normal;font-weight:800;font-size:72px;line-height:1;font-family:'Montserrat ExtraBold Alt1';font-variant-ligatures:none;text-align:center;text-anchor:middle" d="m 648.03612,-50.4 h -14.04 L 611.74812,0 h 14.54401 l 3.95999,-9.792 4.17601,-10.512 6.48,-16.128 6.47999,16.128 4.176,10.512 3.96001,9.792 h 14.832 z" stroke-width="0" stroke-linejoin="miter" stroke-miterlimit="2" fill="#535498" stroke="#535498" transform="translate(0 314.47) translate(703.03898125 37.4) scale(1.25) translate(-611.74812 50.4)"></path>
        <path id="path237418" style="font-style:normal;font-weight:800;font-size:72px;line-height:1;font-family:'Montserrat ExtraBold Alt1';font-variant-ligatures:none;text-align:center;text-anchor:middle" d="m 722.35137,-50.4 h -14.256 v 18.936 H 688.65538 V -50.4 H 674.39937 V 0 h 14.25601 v -19.656 h 19.43999 V 0 h 14.256 z" stroke-width="0" stroke-linejoin="miter" stroke-miterlimit="2" fill="#5b5da2" stroke="#5b5da2" transform="translate(0 314.47) translate(806.35304375 37.4) scale(1.25) translate(-674.39937 50.4)"></path>
      </g>
      <image xlink:href="" id="icon" style="display: none;" x="0" y="0"></image>
    </g>
  </g>
</svg>
